<svg width="104" height="104" viewBox="0 0 104 104" fill="none" xmlns="http://www.w3.org/2000/svg">
<circle cx="2" cy="2" r="2" transform="matrix(4.37114e-08 -1 -1 -4.37114e-08 104 4)" fill="#DFDFDF"/>
<circle cx="2" cy="2" r="2" transform="matrix(4.37114e-08 -1 -1 -4.37114e-08 64 4)" fill="#DFDFDF"/>
<circle cx="2" cy="2" r="2" transform="matrix(4.37114e-08 -1 -1 -4.37114e-08 104 44)" fill="#DFDFDF"/>
<circle cx="2" cy="2" r="2" transform="matrix(4.37114e-08 -1 -1 -4.37114e-08 64 44)" fill="#DFDFDF"/>
<circle cx="2" cy="2" r="2" transform="matrix(4.37114e-08 -1 -1 -4.37114e-08 84 4)" fill="#DFDFDF"/>
<circle cx="2" cy="2" r="2" transform="matrix(4.37114e-08 -1 -1 -4.37114e-08 44 4)" fill="#DFDFDF"/>
<circle cx="2" cy="2" r="2" transform="matrix(4.37114e-08 -1 -1 -4.37114e-08 84 44)" fill="#DFDFDF"/>
<circle cx="2" cy="2" r="2" transform="matrix(4.37114e-08 -1 -1 -4.37114e-08 44 44)" fill="#DFDFDF"/>
<circle cx="2" cy="2" r="2" transform="matrix(4.37114e-08 -1 -1 -4.37114e-08 104 24)" fill="#DFDFDF"/>
<circle cx="2" cy="2" r="2" transform="matrix(4.37114e-08 -1 -1 -4.37114e-08 64 24)" fill="#DFDFDF"/>
<circle cx="2" cy="2" r="2" transform="matrix(4.37114e-08 -1 -1 -4.37114e-08 104 64)" fill="#DFDFDF"/>
<circle cx="2" cy="2" r="2" transform="matrix(4.37114e-08 -1 -1 -4.37114e-08 64 64)" fill="#DFDFDF"/>
<circle cx="2" cy="2" r="2" transform="matrix(4.37114e-08 -1 -1 -4.37114e-08 84 24)" fill="#DFDFDF"/>
<circle cx="2" cy="2" r="2" transform="matrix(4.37114e-08 -1 -1 -4.37114e-08 44 24)" fill="#DFDFDF"/>
<circle cx="2" cy="2" r="2" transform="matrix(4.37114e-08 -1 -1 -4.37114e-08 84 64)" fill="#DFDFDF"/>
<circle cx="2" cy="2" r="2" transform="matrix(4.37114e-08 -1 -1 -4.37114e-08 44 64)" fill="#DFDFDF"/>
<circle cx="2" cy="2" r="2" transform="matrix(4.37114e-08 -1 -1 -4.37114e-08 64 44)" fill="#DFDFDF"/>
<circle cx="2" cy="2" r="2" transform="matrix(4.37114e-08 -1 -1 -4.37114e-08 24 44)" fill="#DFDFDF"/>
<circle cx="2" cy="2" r="2" transform="matrix(4.37114e-08 -1 -1 -4.37114e-08 64 84)" fill="#DFDFDF"/>
<circle cx="2" cy="2" r="2" transform="matrix(4.37114e-08 -1 -1 -4.37114e-08 24 84)" fill="#DFDFDF"/>
<circle cx="2" cy="2" r="2" transform="matrix(4.37114e-08 -1 -1 -4.37114e-08 44 44)" fill="#DFDFDF"/>
<circle cx="2" cy="2" r="2" transform="matrix(4.37114e-08 -1 -1 -4.37114e-08 4 44)" fill="#DFDFDF"/>
<circle cx="2" cy="2" r="2" transform="matrix(4.37114e-08 -1 -1 -4.37114e-08 44 84)" fill="#DFDFDF"/>
<circle cx="2" cy="2" r="2" transform="matrix(4.37114e-08 -1 -1 -4.37114e-08 4 84)" fill="#DFDFDF"/>
<circle cx="2" cy="2" r="2" transform="matrix(4.37114e-08 -1 -1 -4.37114e-08 64 64)" fill="#DFDFDF"/>
<circle cx="2" cy="2" r="2" transform="matrix(4.37114e-08 -1 -1 -4.37114e-08 24 64)" fill="#DFDFDF"/>
<circle cx="2" cy="2" r="2" transform="matrix(4.37114e-08 -1 -1 -4.37114e-08 64 104)" fill="#DFDFDF"/>
<circle cx="2" cy="2" r="2" transform="matrix(4.37114e-08 -1 -1 -4.37114e-08 24 104)" fill="#DFDFDF"/>
<circle cx="2" cy="2" r="2" transform="matrix(4.37114e-08 -1 -1 -4.37114e-08 44 64)" fill="#DFDFDF"/>
<circle cx="2" cy="2" r="2" transform="matrix(4.37114e-08 -1 -1 -4.37114e-08 4 64)" fill="#DFDFDF"/>
<circle cx="2" cy="2" r="2" transform="matrix(4.37114e-08 -1 -1 -4.37114e-08 44 104)" fill="#DFDFDF"/>
<circle cx="2" cy="2" r="2" transform="matrix(4.37114e-08 -1 -1 -4.37114e-08 4 104)" fill="#DFDFDF"/>
</svg>
