<svg width="104" height="104" viewBox="0 0 104 104" fill="none" xmlns="http://www.w3.org/2000/svg">
<circle cx="2" cy="2" r="2" transform="matrix(-1 0 0 1 4 0)" fill="#DFDFDF"/>
<circle cx="2" cy="2" r="2" transform="matrix(-1 0 0 1 4 40)" fill="#DFDFDF"/>
<circle cx="2" cy="2" r="2" transform="matrix(-1 0 0 1 44 0)" fill="#DFDFDF"/>
<circle cx="2" cy="2" r="2" transform="matrix(-1 0 0 1 44 40)" fill="#DFDFDF"/>
<circle cx="2" cy="2" r="2" transform="matrix(-1 0 0 1 4 20)" fill="#DFDFDF"/>
<circle cx="2" cy="2" r="2" transform="matrix(-1 0 0 1 4 60)" fill="#DFDFDF"/>
<circle cx="2" cy="2" r="2" transform="matrix(-1 0 0 1 44 20)" fill="#DFDFDF"/>
<circle cx="2" cy="2" r="2" transform="matrix(-1 0 0 1 44 60)" fill="#DFDFDF"/>
<circle cx="2" cy="2" r="2" transform="matrix(-1 0 0 1 24 0)" fill="#DFDFDF"/>
<circle cx="2" cy="2" r="2" transform="matrix(-1 0 0 1 24 40)" fill="#DFDFDF"/>
<circle cx="2" cy="2" r="2" transform="matrix(-1 0 0 1 64 0)" fill="#DFDFDF"/>
<circle cx="2" cy="2" r="2" transform="matrix(-1 0 0 1 64 40)" fill="#DFDFDF"/>
<circle cx="2" cy="2" r="2" transform="matrix(-1 0 0 1 24 20)" fill="#DFDFDF"/>
<circle cx="2" cy="2" r="2" transform="matrix(-1 0 0 1 24 60)" fill="#DFDFDF"/>
<circle cx="2" cy="2" r="2" transform="matrix(-1 0 0 1 64 20)" fill="#DFDFDF"/>
<circle cx="2" cy="2" r="2" transform="matrix(-1 0 0 1 64 60)" fill="#DFDFDF"/>
<circle cx="2" cy="2" r="2" transform="matrix(-1 0 0 1 44 40)" fill="#DFDFDF"/>
<circle cx="2" cy="2" r="2" transform="matrix(-1 0 0 1 44 80)" fill="#DFDFDF"/>
<circle cx="2" cy="2" r="2" transform="matrix(-1 0 0 1 84 40)" fill="#DFDFDF"/>
<circle cx="2" cy="2" r="2" transform="matrix(-1 0 0 1 84 80)" fill="#DFDFDF"/>
<circle cx="2" cy="2" r="2" transform="matrix(-1 0 0 1 44 60)" fill="#DFDFDF"/>
<circle cx="2" cy="2" r="2" transform="matrix(-1 0 0 1 44 100)" fill="#DFDFDF"/>
<circle cx="2" cy="2" r="2" transform="matrix(-1 0 0 1 84 60)" fill="#DFDFDF"/>
<circle cx="2" cy="2" r="2" transform="matrix(-1 0 0 1 84 100)" fill="#DFDFDF"/>
<circle cx="2" cy="2" r="2" transform="matrix(-1 0 0 1 64 40)" fill="#DFDFDF"/>
<circle cx="2" cy="2" r="2" transform="matrix(-1 0 0 1 64 80)" fill="#DFDFDF"/>
<circle cx="2" cy="2" r="2" transform="matrix(-1 0 0 1 104 40)" fill="#DFDFDF"/>
<circle cx="2" cy="2" r="2" transform="matrix(-1 0 0 1 104 80)" fill="#DFDFDF"/>
<circle cx="2" cy="2" r="2" transform="matrix(-1 0 0 1 64 60)" fill="#DFDFDF"/>
<circle cx="2" cy="2" r="2" transform="matrix(-1 0 0 1 64 100)" fill="#DFDFDF"/>
<circle cx="2" cy="2" r="2" transform="matrix(-1 0 0 1 104 60)" fill="#DFDFDF"/>
<circle cx="2" cy="2" r="2" transform="matrix(-1 0 0 1 104 100)" fill="#DFDFDF"/>
</svg>
