<svg width="572" height="368" viewBox="0 0 572 368" fill="none" xmlns="http://www.w3.org/2000/svg">
<path d="M1 367L59.7784 260.825C71.4282 239.781 98.8825 233.704 118.325 247.866L163.884 281.052C182.514 294.623 208.729 289.682 221.14 270.26L281.009 176.577C293.525 156.991 320.043 152.161 338.661 166.076L364.638 185.491C384.639 200.44 413.296 193.612 424.407 171.25L509 1" stroke="white" stroke-opacity="0.25"/>
<path d="M69 367.5L87.5064 334.073C98.4989 314.219 123.79 307.476 143.207 319.224L191.104 348.203C209.071 359.073 232.386 354.198 244.493 337.04L306.08 249.758C319.111 231.289 344.846 227.279 362.88 240.907L390.039 261.433C410.087 276.584 438.976 269.714 450.057 247.16L571 1" stroke="white" stroke-opacity="0.25"/>
</svg>
