<svg width="576" height="368" viewBox="0 0 576 368" fill="none" xmlns="http://www.w3.org/2000/svg">
<path d="M1 1L65.25 117.539C76.7204 138.344 103.69 144.625 123.172 131.028L169.745 98.5221C188.132 85.689 213.475 90.4743 225.916 109.128L286.24 199.575C298.787 218.388 324.422 223.067 342.807 209.902L370.52 190.056C390.326 175.872 418.104 182.536 429.318 204.162L514 367.461" stroke="white" stroke-opacity="0.25"/>
<path d="M68 1L91.1734 43.6512C102.603 64.6866 129.826 71.0395 149.385 57.2357L195.342 24.802C213.794 11.7795 239.361 16.6058 251.797 35.4588L311.902 126.584C324.443 145.597 350.305 150.317 368.753 136.958L395.92 117.286C415.78 102.905 443.786 109.614 454.974 131.432L576.002 367.461" stroke="white" stroke-opacity="0.25"/>
</svg>
