<svg width="96" height="96" viewBox="0 0 96 96" fill="none" xmlns="http://www.w3.org/2000/svg">
<rect width="96" height="96" rx="8" fill="#F8F8F8"/>
<path d="M32.1111 57.3047H22V58.7491H32.1111V57.3047Z" fill="black"/>
<path d="M32.1111 54.5469H22V55.9913H32.1111V54.5469Z" fill="black"/>
<path d="M29.222 51.7891H24.8887V53.2335H29.222V51.7891Z" fill="black"/>
<path d="M29.222 49.0312H24.8887V50.4757H29.222V49.0312Z" fill="black"/>
<path d="M29.222 46.2734H24.8887V47.7179H29.222V46.2734Z" fill="black"/>
<path d="M29.222 43.5156H24.8887V44.9601H29.222V43.5156Z" fill="black"/>
<path d="M32.1111 40.7578H22V42.2023H32.1111V40.7578Z" fill="black"/>
<path d="M32.1111 38H22V39.4444H32.1111V38Z" fill="black"/>
<path d="M33.5557 55.9913H48.9675C49.229 55.54 49.4246 55.0536 49.5486 54.5469H33.5557V55.9913Z" fill="black"/>
<path d="M47.7608 49.0312H36.4443V50.4757H48.9657C48.6494 49.929 48.2419 49.4405 47.7608 49.0312Z" fill="black"/>
<path d="M36.4443 46.2734V47.718H47.7608C48.2419 47.3087 48.6494 46.8202 48.9658 46.2735L36.4443 46.2734Z" fill="black"/>
<path d="M48.9675 40.7578H33.5557V42.2022H49.5486C49.4246 41.6955 49.229 41.2092 48.9675 40.7578Z" fill="black"/>
<path d="M44.192 38H33.5557V39.4444H47.9125C46.8972 38.5137 45.5694 37.9981 44.192 38Z" fill="black"/>
<path d="M40.7777 43.5156H36.4443V44.9601H40.7777V43.5156Z" fill="black"/>
<path d="M44.8486 44.9601H49.514C49.642 44.4892 49.707 44.0035 49.7072 43.5156H44.8486V44.9601Z" fill="black"/>
<path d="M40.7777 51.7891H36.4443V53.2335H40.7777V51.7891Z" fill="black"/>
<path d="M44.8486 51.7891V53.2335H49.7072C49.707 52.7456 49.642 52.2599 49.514 51.7891H44.8486Z" fill="black"/>
<path d="M33.5557 58.7348L44.192 58.7491C45.5698 58.7529 46.8983 58.2371 47.9126 57.3047H33.5557L33.5557 58.7348Z" fill="black"/>
<path d="M62.4422 58.7492L62.9466 57.3047H61.9424L62.4422 58.7492Z" fill="black"/>
<path d="M61.4816 55.9913H63.4079L63.9149 54.5469H60.9746L61.4816 55.9913Z" fill="black"/>
<path d="M60.513 53.2335H64.3753L64.8825 51.7891H60.0059L60.513 53.2335Z" fill="black"/>
<path d="M59.5451 50.4757H65.3437L65.8507 49.0312H59.0381L59.5451 50.4757Z" fill="black"/>
<path d="M53.7783 44.9601H61.5822L61.0799 43.5156H53.7783V44.9601Z" fill="black"/>
<path d="M64.2656 42.2023H73.9995V40.7578H64.7679L64.2656 42.2023Z" fill="black"/>
<path d="M65.7269 38L65.2246 39.4445H73.9996V38H65.7269Z" fill="black"/>
<path d="M58.1109 57.3047H50.8887V58.7491H58.1109V57.3047Z" fill="black"/>
<path d="M58.1109 54.5469H50.8887V55.9913H58.1109V54.5469Z" fill="black"/>
<path d="M58.1107 51.7891H53.7773V53.2335H58.1107V51.7891Z" fill="black"/>
<path d="M58.1107 49.0312H53.7773V50.4757H58.1107V49.0312Z" fill="black"/>
<path d="M71.1115 43.5156H63.8099L63.3076 44.9601H71.1115V43.5156Z" fill="black"/>
<path d="M66.7783 47.7179H71.1115V46.2734H66.7783H62.8509L62.4449 47.441L62.0388 46.2734H58.1115H53.7783V47.7179H58.1115V46.3904L58.5776 47.7179H66.3123L66.7783 46.3906V47.7179Z" fill="black"/>
<path d="M71.1107 49.0312H66.7773V50.4757H71.1107V49.0312Z" fill="black"/>
<path d="M71.1107 51.7891H66.7773V53.2335H71.1107V51.7891Z" fill="black"/>
<path d="M73.9996 54.5469H66.7773V55.9913H73.9996V54.5469Z" fill="black"/>
<path d="M73.9996 57.3047H66.7773V58.7491H73.9996V57.3047Z" fill="black"/>
<path d="M60.6226 42.2023L60.1203 40.7578H50.8887V42.2023H60.6226Z" fill="black"/>
<path d="M59.6637 39.4445L59.1614 38H50.8887V39.4445H59.6637Z" fill="black"/>
</svg>
