<svg width="113" height="28" viewBox="0 0 113 28" fill="none" xmlns="http://www.w3.org/2000/svg">
<rect width="113" height="28" rx="14" fill="url(#paint0_linear_2811_129)"/>
<path d="M14.8 20L19.632 9.312L19.984 9.824H13.056L13.648 9.264V11.92H12.512V8.8H20.736V9.616L16.048 20H14.8ZM25.493 20.096C24.693 20.096 23.9303 19.968 23.205 19.712C22.4797 19.4453 21.9037 19.0933 21.477 18.656L22.037 17.744C22.389 18.1173 22.869 18.4267 23.477 18.672C24.0957 18.9173 24.7623 19.04 25.477 19.04C26.4263 19.04 27.1463 18.832 27.637 18.416C28.1383 17.9893 28.389 17.4347 28.389 16.752C28.389 16.272 28.2717 15.8613 28.037 15.52C27.813 15.168 27.429 14.896 26.885 14.704C26.341 14.512 25.5943 14.416 24.645 14.416H22.261L22.837 8.8H28.965V9.824H23.301L23.893 9.264L23.397 13.968L22.805 13.392H24.901C26.0317 13.392 26.9383 13.5307 27.621 13.808C28.3037 14.0853 28.7943 14.4747 29.093 14.976C29.4023 15.4667 29.557 16.0427 29.557 16.704C29.557 17.3333 29.4077 17.9093 29.109 18.432C28.8103 18.944 28.3623 19.3493 27.765 19.648C27.1677 19.9467 26.4103 20.096 25.493 20.096ZM32.3673 20L40.0153 8.8H40.9593L33.3113 20H32.3673ZM33.2313 14.8C32.7299 14.8 32.2873 14.6773 31.9033 14.432C31.5193 14.176 31.2206 13.8187 31.0073 13.36C30.8046 12.9013 30.7033 12.368 30.7033 11.76C30.7033 11.152 30.8046 10.6187 31.0073 10.16C31.2206 9.70133 31.5193 9.34933 31.9033 9.104C32.2873 8.848 32.7299 8.72 33.2313 8.72C33.7326 8.72 34.1699 8.848 34.5433 9.104C34.9273 9.34933 35.2259 9.70133 35.4393 10.16C35.6526 10.6187 35.7593 11.152 35.7593 11.76C35.7593 12.368 35.6526 12.9013 35.4393 13.36C35.2259 13.8187 34.9273 14.176 34.5433 14.432C34.1699 14.6773 33.7326 14.8 33.2313 14.8ZM33.2313 14.08C33.7539 14.08 34.1699 13.8773 34.4793 13.472C34.7993 13.056 34.9593 12.4853 34.9593 11.76C34.9593 11.0347 34.7993 10.4693 34.4793 10.064C34.1699 9.648 33.7539 9.44 33.2313 9.44C32.6979 9.44 32.2766 9.648 31.9673 10.064C31.6579 10.4693 31.5033 11.0347 31.5033 11.76C31.5033 12.4853 31.6579 13.056 31.9673 13.472C32.2766 13.8773 32.6979 14.08 33.2313 14.08ZM40.0953 20.08C39.6046 20.08 39.1673 19.9573 38.7833 19.712C38.3993 19.456 38.1006 19.0987 37.8873 18.64C37.6739 18.1813 37.5673 17.648 37.5673 17.04C37.5673 16.432 37.6739 15.8987 37.8873 15.44C38.1006 14.9813 38.3993 14.6293 38.7833 14.384C39.1673 14.128 39.6046 14 40.0953 14C40.6073 14 41.0499 14.128 41.4233 14.384C41.8073 14.6293 42.1006 14.9813 42.3033 15.44C42.5166 15.8987 42.6233 16.432 42.6233 17.04C42.6233 17.648 42.5166 18.1813 42.3033 18.64C42.1006 19.0987 41.8073 19.456 41.4233 19.712C41.0499 19.9573 40.6073 20.08 40.0953 20.08ZM40.0953 19.36C40.6179 19.36 41.0339 19.1573 41.3433 18.752C41.6633 18.336 41.8233 17.7653 41.8233 17.04C41.8233 16.3147 41.6633 15.7493 41.3433 15.344C41.0339 14.928 40.6179 14.72 40.0953 14.72C39.5726 14.72 39.1513 14.928 38.8313 15.344C38.5219 15.7493 38.3673 16.3147 38.3673 17.04C38.3673 17.7653 38.5219 18.336 38.8313 18.752C39.1513 19.1573 39.5726 19.36 40.0953 19.36ZM52.4124 20.08C51.6124 20.08 50.8924 19.8987 50.2524 19.536C49.623 19.1733 49.127 18.672 48.7644 18.032C48.4017 17.3813 48.2204 16.6347 48.2204 15.792C48.2204 14.9387 48.4017 14.192 48.7644 13.552C49.127 12.912 49.623 12.416 50.2524 12.064C50.8924 11.7013 51.6124 11.52 52.4124 11.52C53.1484 11.52 53.8044 11.6853 54.3804 12.016C54.967 12.3467 55.431 12.832 55.7724 13.472C56.1244 14.1013 56.3004 14.8747 56.3004 15.792C56.3004 16.6987 56.1297 17.472 55.7884 18.112C55.447 18.752 54.983 19.2427 54.3964 19.584C53.8204 19.9147 53.159 20.08 52.4124 20.08ZM52.4924 19.072C53.0897 19.072 53.623 18.9387 54.0924 18.672C54.5724 18.3947 54.9457 18.0107 55.2124 17.52C55.4897 17.0187 55.6284 16.4427 55.6284 15.792C55.6284 15.1307 55.4897 14.5547 55.2124 14.064C54.9457 13.5733 54.5724 13.1947 54.0924 12.928C53.623 12.6507 53.0897 12.512 52.4924 12.512C51.9057 12.512 51.3777 12.6507 50.9084 12.928C50.439 13.1947 50.0657 13.5733 49.7884 14.064C49.511 14.5547 49.3724 15.1307 49.3724 15.792C49.3724 16.4427 49.511 17.0187 49.7884 17.52C50.0657 18.0107 50.439 18.3947 50.9084 18.672C51.3777 18.9387 51.9057 19.072 52.4924 19.072ZM55.6604 20V17.472L55.7724 15.776L55.6124 14.08V8.128H56.7484V20H55.6604ZM59.9121 20V11.6H61.0481V20H59.9121ZM60.4881 9.744C60.2535 9.744 60.0561 9.664 59.8961 9.504C59.7361 9.344 59.6561 9.152 59.6561 8.928C59.6561 8.704 59.7361 8.51733 59.8961 8.368C60.0561 8.208 60.2535 8.128 60.4881 8.128C60.7228 8.128 60.9201 8.20267 61.0801 8.352C61.2401 8.50133 61.3201 8.688 61.3201 8.912C61.3201 9.14667 61.2401 9.344 61.0801 9.504C60.9308 9.664 60.7335 9.744 60.4881 9.744ZM66.465 20.08C65.7717 20.08 65.1157 19.984 64.497 19.792C63.8783 19.5893 63.393 19.3387 63.041 19.04L63.553 18.144C63.8943 18.4 64.3317 18.624 64.865 18.816C65.3983 18.9973 65.9583 19.088 66.545 19.088C67.345 19.088 67.921 18.9653 68.273 18.72C68.625 18.464 68.801 18.128 68.801 17.712C68.801 17.4027 68.6997 17.1627 68.497 16.992C68.305 16.8107 68.049 16.6773 67.729 16.592C67.409 16.496 67.0517 16.416 66.657 16.352C66.2623 16.288 65.8677 16.2133 65.473 16.128C65.089 16.0427 64.737 15.92 64.417 15.76C64.097 15.5893 63.8357 15.36 63.633 15.072C63.441 14.784 63.345 14.4 63.345 13.92C63.345 13.4613 63.473 13.0507 63.729 12.688C63.985 12.3253 64.3583 12.0427 64.849 11.84C65.3503 11.6267 65.9583 11.52 66.673 11.52C67.217 11.52 67.761 11.5947 68.305 11.744C68.849 11.8827 69.297 12.0693 69.649 12.304L69.153 13.216C68.7797 12.96 68.3797 12.7787 67.953 12.672C67.5263 12.5547 67.0997 12.496 66.673 12.496C65.9157 12.496 65.3557 12.6293 64.993 12.896C64.641 13.152 64.465 13.4827 64.465 13.888C64.465 14.208 64.561 14.4587 64.753 14.64C64.9557 14.8213 65.217 14.9653 65.537 15.072C65.8677 15.168 66.225 15.248 66.609 15.312C67.0037 15.376 67.393 15.456 67.777 15.552C68.1717 15.6373 68.529 15.76 68.849 15.92C69.1797 16.0693 69.441 16.288 69.633 16.576C69.8357 16.8533 69.937 17.2213 69.937 17.68C69.937 18.1707 69.7983 18.5973 69.521 18.96C69.2543 19.312 68.8597 19.5893 68.337 19.792C67.825 19.984 67.201 20.08 66.465 20.08ZM72.9175 17.824L72.9495 16.368L78.1815 11.6H79.5735L75.8775 15.136L75.2375 15.68L72.9175 17.824ZM72.0215 20V8.128H73.1575V20H72.0215ZM78.5335 20L75.0295 15.632L75.7655 14.752L79.9255 20H78.5335ZM84.7268 20.08C83.9161 20.08 83.1854 19.8987 82.5348 19.536C81.8948 19.1627 81.3881 18.656 81.0148 18.016C80.6414 17.3653 80.4548 16.624 80.4548 15.792C80.4548 14.9493 80.6414 14.208 81.0148 13.568C81.3881 12.928 81.8948 12.4267 82.5348 12.064C83.1748 11.7013 83.9054 11.52 84.7268 11.52C85.5588 11.52 86.2948 11.7013 86.9348 12.064C87.5854 12.4267 88.0921 12.928 88.4548 13.568C88.8281 14.208 89.0148 14.9493 89.0148 15.792C89.0148 16.624 88.8281 17.3653 88.4548 18.016C88.0921 18.656 87.5854 19.1627 86.9348 19.536C86.2841 19.8987 85.5481 20.08 84.7268 20.08ZM84.7268 19.072C85.3348 19.072 85.8734 18.9387 86.3428 18.672C86.8121 18.3947 87.1801 18.0107 87.4468 17.52C87.7241 17.0187 87.8628 16.4427 87.8628 15.792C87.8628 15.1307 87.7241 14.5547 87.4468 14.064C87.1801 13.5733 86.8121 13.1947 86.3428 12.928C85.8734 12.6507 85.3401 12.512 84.7428 12.512C84.1454 12.512 83.6121 12.6507 83.1428 12.928C82.6734 13.1947 82.3001 13.5733 82.0228 14.064C81.7454 14.5547 81.6068 15.1307 81.6068 15.792C81.6068 16.4427 81.7454 17.0187 82.0228 17.52C82.3001 18.0107 82.6734 18.3947 83.1428 18.672C83.6121 18.9387 84.1401 19.072 84.7268 19.072ZM95.622 11.52C96.3047 11.52 96.902 11.6533 97.414 11.92C97.9367 12.176 98.342 12.5707 98.63 13.104C98.9287 13.6373 99.078 14.3093 99.078 15.12V20H97.942V15.232C97.942 14.3467 97.718 13.68 97.27 13.232C96.8327 12.7733 96.214 12.544 95.414 12.544C94.8167 12.544 94.294 12.6667 93.846 12.912C93.4087 13.1467 93.0673 13.4933 92.822 13.952C92.5873 14.4 92.47 14.944 92.47 15.584V20H91.334V11.6H92.422V13.904L92.246 13.472C92.5127 12.864 92.9393 12.3893 93.526 12.048C94.1127 11.696 94.8113 11.52 95.622 11.52Z" fill="white"/>
<defs>
<linearGradient id="paint0_linear_2811_129" x1="104.853" y1="3.33333" x2="91.2717" y2="47.1911" gradientUnits="userSpaceOnUse">
<stop stop-color="#0056D2"/>
<stop offset="1" stop-color="#A29AFE"/>
</linearGradient>
</defs>
</svg>
