<svg width="27" height="32" viewBox="0 0 27 32" fill="none" xmlns="http://www.w3.org/2000/svg">
<path d="M24.4197 20.9707C24.1609 20.7509 23.8791 20.5476 23.5686 20.3683L23.2911 20.208C21.6989 19.2888 19.7667 19.3174 18.1326 20.1597C17.4931 20.4893 16.7678 20.6755 15.9982 20.6755C14.2567 20.6755 12.7404 19.7218 11.935 18.3103C11.5455 17.6277 11.3197 16.8394 11.3197 15.9974C11.3197 13.4136 13.4144 11.3192 15.9979 11.3192C16.0655 11.3192 16.1325 11.3224 16.1993 11.3254C15.7623 11.2896 15.3204 11.2695 14.874 11.2695C8.59545 11.2695 3.16476 14.8877 0.544922 20.1509C0.907431 21.4983 1.44117 22.7758 2.12105 23.9584C4.59102 28.2546 8.99536 31.2954 14.1466 31.8895C14.32 31.9096 14.4942 31.9267 14.6691 31.9411C15.1075 31.9771 15.5502 31.9977 15.9976 31.9977C17.8625 31.9977 19.6518 31.6774 21.3156 31.0905C22.0264 30.8397 22.7151 30.5413 23.3758 30.1967C26.9771 28.32 27.3513 23.461 24.4197 20.9707Z" fill="url(#paint0_linear_2739_3258)"/>
<path d="M20.3967 7.75726C19.4048 6.92405 18.5 5.99333 17.514 5.15345C15.1086 3.10422 11.8407 2.115 8.70582 2.02791C8.5418 2.02337 8.37751 2.0231 8.21349 2.02364C3.31467 4.75888 0 9.99135 0 16.0007C0 17.4379 0.191006 18.8297 0.547371 20.1542C3.16721 14.891 8.59816 11.2728 14.8765 11.2728C15.3229 11.2728 15.7645 11.2926 16.2018 11.3287C16.3738 11.3359 16.5429 11.353 16.7096 11.3783C17.2134 11.4553 17.6913 11.611 18.1284 11.8354C18.9741 12.2701 19.9046 12.4573 20.8308 12.4202C21.7751 12.3823 22.7146 12.1111 23.5551 11.6276C24.8913 10.8585 25.7485 9.67826 26.134 8.38103C25.3962 8.73553 24.5592 8.93748 23.6496 8.9292C22.296 8.91691 21.4174 8.61478 20.3967 7.75726Z" fill="#0056D2"/>
<path d="M23.3688 1.79625C21.1638 0.648885 18.6578 0 15.9998 0C13.1723 0 10.518 0.736239 8.21289 2.02332C8.37691 2.02278 8.54121 2.02278 8.70523 2.02759C11.8401 2.11468 15.108 3.1039 17.5134 5.15313C18.4994 5.99302 19.4042 6.92373 20.3961 7.75694C21.4168 8.61446 22.2954 8.9166 23.6488 8.92862C24.5584 8.9369 25.3953 8.73494 26.1332 8.38045C26.8534 5.95749 25.9235 3.12554 23.3688 1.79625Z" fill="url(#paint1_linear_2739_3258)"/>
<defs>
<linearGradient id="paint0_linear_2739_3258" x1="0.545296" y1="21.6335" x2="26.3765" y2="21.6335" gradientUnits="userSpaceOnUse">
<stop offset="0.2392" stop-color="#5F88FF"/>
<stop offset="1" stop-color="#5C4CFF"/>
</linearGradient>
<linearGradient id="paint1_linear_2739_3258" x1="8.2131" y1="4.46455" x2="26.3693" y2="4.46455" gradientUnits="userSpaceOnUse">
<stop offset="0.2392" stop-color="#4883D9"/>
<stop offset="1" stop-color="#5C4CFF"/>
</linearGradient>
</defs>
</svg>
