<svg width="180" height="42" viewBox="0 0 180 42" fill="none" xmlns="http://www.w3.org/2000/svg">
<path d="M46.889 31.308C45.3396 31.308 43.9863 31.0187 42.829 30.44C41.6903 29.8427 40.8036 29.0027 40.169 27.92C39.553 26.8373 39.245 25.568 39.245 24.112C39.245 22.6747 39.5623 21.4147 40.197 20.332C40.8316 19.2307 41.7183 18.3813 42.857 17.784C43.9956 17.168 45.3116 16.86 46.805 16.86C47.8316 16.86 48.8116 17.0467 49.745 17.42C50.6783 17.7747 51.509 18.3067 52.237 19.016L49.801 21.676C49.017 20.948 48.093 20.584 47.029 20.584C46.021 20.584 45.1996 20.9107 44.565 21.564C43.9303 22.1987 43.613 23.0387 43.613 24.084C43.613 25.1293 43.921 25.9787 44.537 26.632C45.1716 27.2667 46.0023 27.584 47.029 27.584C48.1676 27.584 49.1383 27.1827 49.941 26.38L52.433 29.012C50.8836 30.5427 49.0356 31.308 46.889 31.308ZM60.9697 31.308C59.439 31.308 58.095 31.0093 56.9377 30.412C55.799 29.796 54.9217 28.9467 54.3057 27.864C53.6897 26.7813 53.3817 25.5213 53.3817 24.084C53.3817 22.6467 53.6897 21.3867 54.3057 20.304C54.9217 19.2213 55.799 18.3813 56.9377 17.784C58.095 17.168 59.439 16.86 60.9697 16.86C62.5003 16.86 63.8443 17.168 65.0017 17.784C66.159 18.3813 67.0457 19.2213 67.6617 20.304C68.2777 21.3867 68.5857 22.6467 68.5857 24.084C68.5857 25.5213 68.2777 26.7813 67.6617 27.864C67.0457 28.9467 66.159 29.796 65.0017 30.412C63.8443 31.0093 62.5003 31.308 60.9697 31.308ZM60.9697 27.584C61.9403 27.584 62.7243 27.2573 63.3217 26.604C63.919 25.9507 64.2177 25.1107 64.2177 24.084C64.2177 23.0573 63.919 22.2173 63.3217 21.564C62.7243 20.9107 61.9403 20.584 60.9697 20.584C60.0177 20.584 59.243 20.9107 58.6457 21.564C58.0483 22.2173 57.7497 23.0573 57.7497 24.084C57.7497 25.1107 58.0483 25.9507 58.6457 26.604C59.243 27.2573 60.0177 27.584 60.9697 27.584ZM85.6228 11.4V31H81.8148L81.5348 29.348C80.3588 30.636 78.8281 31.28 76.9428 31.28C75.6548 31.28 74.5068 30.9813 73.4988 30.384C72.5095 29.768 71.7348 28.9187 71.1748 27.836C70.6148 26.7347 70.3348 25.484 70.3348 24.084C70.3348 22.684 70.6148 21.4427 71.1748 20.36C71.7348 19.2587 72.5095 18.4093 73.4988 17.812C74.5068 17.196 75.6548 16.888 76.9428 16.888C78.6415 16.888 80.0695 17.42 81.2268 18.484V11.4H85.6228ZM77.9788 27.584C78.9495 27.584 79.7428 27.2667 80.3588 26.632C80.9748 25.9787 81.2828 25.1293 81.2828 24.084C81.2828 23.0387 80.9748 22.1987 80.3588 21.564C79.7428 20.9107 78.9495 20.584 77.9788 20.584C77.0081 20.584 76.2148 20.9107 75.5988 21.564C75.0015 22.2173 74.7028 23.0573 74.7028 24.084C74.7028 25.1107 75.0015 25.9507 75.5988 26.604C76.2148 27.2573 77.0081 27.584 77.9788 27.584ZM95.6109 16.86C97.1229 16.86 98.4296 17.1493 99.5309 17.728C100.632 18.288 101.472 19.0907 102.051 20.136C102.648 21.1627 102.947 22.3667 102.947 23.748C102.947 24.196 102.9 24.7467 102.807 25.4H92.6429C92.7736 26.1093 93.1563 26.688 93.7909 27.136C94.4256 27.5653 95.2376 27.78 96.2269 27.78C96.9176 27.78 97.5896 27.6773 98.2429 27.472C98.8963 27.2667 99.4563 26.9773 99.9229 26.604L102.219 29.068C101.435 29.796 100.502 30.356 99.4189 30.748C98.3549 31.14 97.2163 31.336 96.0029 31.336C94.3976 31.336 93.0069 31.0467 91.8309 30.468C90.6549 29.8707 89.7496 29.0307 89.1149 27.948C88.4803 26.8653 88.1629 25.5867 88.1629 24.112C88.1629 22.6933 88.4709 21.4333 89.0869 20.332C89.7216 19.2307 90.5989 18.3813 91.7189 17.784C92.8389 17.168 94.1363 16.86 95.6109 16.86ZM95.7509 20.332C94.8736 20.332 94.1549 20.556 93.5949 21.004C93.0536 21.452 92.7456 22.0773 92.6709 22.88H98.7749C98.7189 22.0773 98.4203 21.452 97.8789 21.004C97.3563 20.556 96.6469 20.332 95.7509 20.332Z" fill="url(#paint0_linear_2738_3225)"/>
<path d="M115.184 17.168H119.86L114.008 31H109.528L103.648 17.168H108.436L110.088 21.34L111.796 26.352L113.504 21.34L115.184 17.168ZM127.712 16.86C129.224 16.86 130.531 17.1493 131.632 17.728C132.734 18.288 133.574 19.0907 134.152 20.136C134.75 21.1627 135.048 22.3667 135.048 23.748C135.048 24.196 135.002 24.7467 134.908 25.4H124.744C124.875 26.1093 125.258 26.688 125.892 27.136C126.527 27.5653 127.339 27.78 128.328 27.78C129.019 27.78 129.691 27.6773 130.344 27.472C130.998 27.2667 131.558 26.9773 132.024 26.604L134.32 29.068C133.536 29.796 132.603 30.356 131.52 30.748C130.456 31.14 129.318 31.336 128.104 31.336C126.499 31.336 125.108 31.0467 123.932 30.468C122.756 29.8707 121.851 29.0307 121.216 27.948C120.582 26.8653 120.264 25.5867 120.264 24.112C120.264 22.6933 120.572 21.4333 121.188 20.332C121.823 19.2307 122.7 18.3813 123.82 17.784C124.94 17.168 126.238 16.86 127.712 16.86ZM127.852 20.332C126.975 20.332 126.256 20.556 125.696 21.004C125.155 21.452 124.847 22.0773 124.772 22.88H130.876C130.82 22.0773 130.522 21.452 129.98 21.004C129.458 20.556 128.748 20.332 127.852 20.332ZM145.35 16.86C145.985 16.86 146.619 16.9813 147.254 17.224C147.889 17.448 148.439 17.784 148.906 18.232L147.058 21.452C146.666 21.2093 146.302 21.032 145.966 20.92C145.63 20.808 145.275 20.752 144.902 20.752C143.969 20.752 143.231 21.0507 142.69 21.648C142.149 22.2453 141.878 23.1227 141.878 24.28V31H137.482V17.168H141.318L141.654 18.904C142.55 17.5413 143.782 16.86 145.35 16.86ZM155.655 31.364C153.21 31.364 151.082 30.748 149.271 29.516L150.951 26.492C151.623 26.9027 152.398 27.22 153.275 27.444C154.171 27.668 155.058 27.78 155.935 27.78C157.148 27.78 157.755 27.4533 157.755 26.8C157.755 26.464 157.587 26.212 157.251 26.044C156.915 25.876 156.355 25.764 155.571 25.708C153.816 25.6147 152.416 25.176 151.371 24.392C150.344 23.608 149.831 22.5813 149.831 21.312C149.831 19.9307 150.391 18.8387 151.511 18.036C152.631 17.2147 154.143 16.804 156.047 16.804C157.13 16.804 158.156 16.9347 159.127 17.196C160.116 17.4573 160.966 17.8213 161.675 18.288L159.967 21.228C158.922 20.6307 157.68 20.332 156.243 20.332C154.824 20.332 154.115 20.668 154.115 21.34C154.115 21.62 154.255 21.8347 154.535 21.984C154.834 22.1333 155.328 22.2453 156.019 22.32C157.998 22.4693 159.5 22.9173 160.527 23.664C161.572 24.4107 162.095 25.456 162.095 26.8C162.095 28.2187 161.526 29.3387 160.387 30.16C159.248 30.9627 157.671 31.364 155.655 31.364ZM170.916 16.86C172.428 16.86 173.734 17.1493 174.836 17.728C175.937 18.288 176.777 19.0907 177.356 20.136C177.953 21.1627 178.252 22.3667 178.252 23.748C178.252 24.196 178.205 24.7467 178.112 25.4H167.948C168.078 26.1093 168.461 26.688 169.096 27.136C169.73 27.5653 170.542 27.78 171.532 27.78C172.222 27.78 172.894 27.6773 173.548 27.472C174.201 27.2667 174.761 26.9773 175.228 26.604L177.524 29.068C176.74 29.796 175.806 30.356 174.724 30.748C173.66 31.14 172.521 31.336 171.308 31.336C169.702 31.336 168.312 31.0467 167.136 30.468C165.96 29.8707 165.054 29.0307 164.42 27.948C163.785 26.8653 163.468 25.5867 163.468 24.112C163.468 22.6933 163.776 21.4333 164.392 20.332C165.026 19.2307 165.904 18.3813 167.024 17.784C168.144 17.168 169.441 16.86 170.916 16.86ZM171.056 20.332C170.178 20.332 169.46 20.556 168.9 21.004C168.358 21.452 168.05 22.0773 167.976 22.88H174.08C174.024 22.0773 173.725 21.452 173.184 21.004C172.661 20.556 171.952 20.332 171.056 20.332Z" fill="black"/>
<path d="M24.4197 25.9707C24.1609 25.7509 23.8791 25.5476 23.5686 25.3683L23.2911 25.208C21.6989 24.2888 19.7667 24.3174 18.1326 25.1597C17.4931 25.4893 16.7678 25.6755 15.9982 25.6755C14.2567 25.6755 12.7404 24.7218 11.935 23.3103C11.5455 22.6277 11.3197 21.8394 11.3197 20.9974C11.3197 18.4136 13.4144 16.3192 15.9979 16.3192C16.0655 16.3192 16.1325 16.3224 16.1993 16.3254C15.7623 16.2896 15.3204 16.2695 14.874 16.2695C8.59545 16.2695 3.16476 19.8877 0.544922 25.1509C0.907431 26.4983 1.44117 27.7758 2.12105 28.9584C4.59102 33.2546 8.99536 36.2954 14.1466 36.8895C14.32 36.9096 14.4942 36.9267 14.6691 36.9411C15.1075 36.9771 15.5502 36.9977 15.9976 36.9977C17.8625 36.9977 19.6518 36.6774 21.3156 36.0905C22.0264 35.8397 22.7151 35.5413 23.3758 35.1967C26.9771 33.32 27.3513 28.461 24.4197 25.9707Z" fill="url(#paint1_linear_2738_3225)"/>
<path d="M20.3967 12.7573C19.4048 11.9241 18.5 10.9933 17.514 10.1534C15.1086 8.10422 11.8407 7.115 8.70582 7.02791C8.5418 7.02337 8.37751 7.0231 8.21349 7.02364C3.31467 9.75888 0 14.9914 0 21.0007C0 22.4379 0.191006 23.8297 0.547371 25.1542C3.16721 19.891 8.59816 16.2728 14.8765 16.2728C15.3229 16.2728 15.7645 16.2926 16.2018 16.3287C16.3738 16.3359 16.5429 16.353 16.7096 16.3783C17.2134 16.4553 17.6913 16.611 18.1284 16.8354C18.9741 17.2701 19.9046 17.4573 20.8308 17.4202C21.7751 17.3823 22.7146 17.1111 23.5551 16.6276C24.8913 15.8585 25.7485 14.6783 26.134 13.381C25.3962 13.7355 24.5592 13.9375 23.6496 13.9292C22.296 13.9169 21.4174 13.6148 20.3967 12.7573Z" fill="#0056D2"/>
<path d="M23.3688 6.79625C21.1638 5.64888 18.6578 5 15.9998 5C13.1723 5 10.518 5.73624 8.21289 7.02332C8.37691 7.02278 8.54121 7.02278 8.70523 7.02759C11.8401 7.11468 15.108 8.1039 17.5134 10.1531C18.4994 10.993 19.4042 11.9237 20.3961 12.7569C21.4168 13.6145 22.2954 13.9166 23.6488 13.9286C24.5584 13.9369 25.3953 13.7349 26.1332 13.3804C26.8534 10.9575 25.9235 8.12554 23.3688 6.79625Z" fill="url(#paint2_linear_2738_3225)"/>
<defs>
<linearGradient id="paint0_linear_2738_3225" x1="35.5" y1="1.5" x2="99" y2="49" gradientUnits="userSpaceOnUse">
<stop offset="0.327323" stop-color="#0056D2"/>
<stop offset="1" stop-color="#5F7FFF"/>
</linearGradient>
<linearGradient id="paint1_linear_2738_3225" x1="0.545296" y1="26.6335" x2="26.3765" y2="26.6335" gradientUnits="userSpaceOnUse">
<stop offset="0.2392" stop-color="#5F88FF"/>
<stop offset="1" stop-color="#5C4CFF"/>
</linearGradient>
<linearGradient id="paint2_linear_2738_3225" x1="8.2131" y1="9.46455" x2="26.3693" y2="9.46455" gradientUnits="userSpaceOnUse">
<stop offset="0.2392" stop-color="#4883D9"/>
<stop offset="1" stop-color="#5C4CFF"/>
</linearGradient>
</defs>
</svg>
